# xmcd
#
# Track frame offsets:
#  150
#  12888
#  26495
#  39850
#  52840
#  64845
#  75617
#  88430
#  100585
#  113260
#  124930
#
# Disc length: 1841 seconds
#
# Revision: 0
# Processed by: cddbd v1.4PL0 Copyright (c) Steve Scherf et al.
# Submitted via: AltoMP3_Maker 3.0
#
DISCID=79072f0b
DTITLE=Bukka White - The Collection Of Bukka White
DYEAR=1900
DGENRE=
TTITLE0=Pinebluff, Arkansas
TTITLE1=Shake 'Em On Down
TTITLE2=Black Train Blues
TTITLE3=Strange Place Blues
TTITLE4=Parchman Farm Blues
TTITLE5=Good Gin Blues
TTITLE6=High Fever Blues
TTITLE7=District Attorney Blues
TTITLE8=Fixing To Die Blues
TTITLE9=Aberdon Mississippi Blues
TTITLE10=Special Streamline
EXTD=
EXTT0=
EXTT1=
EXTT2=
EXTT3=
EXTT4=
EXTT5=
EXTT6=
EXTT7=
EXTT8=
EXTT9=
EXTT10=
PLAYORDER=
